<?xml version="1.0" encoding="utf-8"?>
<!-- Generator: Adobe Illustrator 24.0.2, SVG Export Plug-In . SVG Version: 6.00 Build 0)  -->
<svg version="1.1" id="Layer_1" xmlns="http://www.w3.org/2000/svg" xmlns:xlink="http://www.w3.org/1999/xlink" x="0px" y="0px"
	 viewBox="0 0 595.3 841.9" style="enable-background:new 0 0 595.3 841.9;" xml:space="preserve">
<style type="text/css">
	.st0{fill:#231F20;}
	.st1{fill:#FFFFFF;}
</style>
<path class="st0" d="M45.8,334c9-11.6,20.4-26.2,39.8-42.8c79.6-68,182.5-74.2,203.4-70.2c12.8,2.4,14.2,4.4,42.5,10.7
	c53.1,11.8,79.7,17.7,103.5,15.3c68.3-6.9,99.7-74,123.9-64.1c10.1,4.1,10.9,18.5,11.1,22.9c1.3,26.3-30.3,45.3-38.8,50.4
	c-34.8,20.8-74.5,20.2-101.7,19.8c-14.1-0.2-41-4.2-94.3-12.2c-46.2-6.9-52.1-8.4-57.4-8.9l0,0c-2-0.1-3.5-0.2-3.6-0.2
	c-9.4-0.7-24,1.5-24,1.5c-18,2.7-27,4-32.2,5.2c-14.7,3.3-42.3,11.3-69.5,28.3c-40.1,25.3-59,58.2-66.7,71.4
	c-6.6,11.4-12,23.6-26.1,44.3c-22.1,32.6-28.3,32.7-30.3,32.4c-9-1.4-13.2-22.3-12.3-38.1C14.4,375,28.3,356.5,45.8,334z"/>
<path class="st1" d="M243.6,289.7"/>
<path class="st0" d="M636,456.5"/>
<path class="st0" d="M300.5,654.9"/>
<path class="st0" d="M394.1,327.6c0.8,1.2,1.1,1.6,1.6,2.4l0,0c3.3,5.2,45,69.3,12,122.3c-18,28.8-58.2,60.1-84,51.8
	c-21.6-6.9-34.8-42-19.2-57.7c8.2-8.2,25.4-12.3,34-7.2c12.7,7.5,1.8,32.3,8.2,34.1c5.1,1.5,18.4-12.4,26.5-29.1
	c15.4-31.5,17-84-25.3-117.7c-8-6.4-26-18.8-56.3-24.6c-1.4,15.4-3.6,38-7.1,65.3c-6.3,49.1-11.6,79.3-21.6,118.6
	c-11.3,44.6-20.8,62-29.1,72.9c-2.5,3.3-39.5,51.3-39.5,51.3c-8.5-9.3-19.3-24-15.2-39.1c5.3-19.6,29.9-19.5,38.4-37.6
	c7.8-16.8-16.1-44.1-64-98.5c-7.7-8.7-28.3-31.9-40.2-28.3c-6.2,1.8-5.4,9.4-14.1,13c-10.5,4.4-27.3-0.2-29.1-6.3
	c-1.6-5.3,8.4-11.5,37.5-26.9c46.2-24.5,57.8-26.2,83.3-42.6c16.4-10.5,29-18.6,40.8-32.8c23.1-27.9,13.2-49.4,30.1-56.3
	c11.7-4.8,29.3,3.9,64.7,21.2C326.3,275.5,376.9,300.2,394.1,327.6z"/>
<path class="st1" d="M171.5,411.9c-4-14.6,35.5-42.1,53.6-35.1c24.2,9.4,9.9,79.8-1.6,80.7c-4.6,0.4-5.1-10.7-20.6-24.3
	C186.5,419,173.6,419.6,171.5,411.9z"/>
<path class="st0" d="M1143,400.5"/>
<path class="st0" d="M451,697.9"/>
<path class="st0" d="M659,661.9"/>
<path class="st1" d="M758,892.9"/>
</svg>
